<svg width="172" height="42" viewBox="0 0 172 42" fill="none" xmlns="http://www.w3.org/2000/svg">
<path d="M56.8146 27.632C56.4772 27.632 56.1859 27.609 55.9406 27.563C55.8026 27.5477 55.6492 27.5323 55.4806 27.517C55.3272 27.5017 55.1662 27.494 54.9976 27.494C54.8749 27.4787 54.7522 27.4633 54.6296 27.448C54.5222 27.4327 54.4072 27.4097 54.2846 27.379C54.0239 27.287 53.8092 27.149 53.6406 26.965C53.5639 26.8883 53.4872 26.8193 53.4106 26.758C53.3492 26.6813 53.2956 26.6047 53.2496 26.528C53.1729 26.436 53.1116 26.275 53.0656 26.045C52.9429 25.539 52.8969 25.01 52.9276 24.458C52.9429 24.182 52.9506 23.9213 52.9506 23.676C52.9506 23.4153 52.9506 23.1547 52.9506 22.894V20.916V19.053V17.236C52.9352 16.8833 52.9276 16.5537 52.9276 16.247C52.9276 15.9403 52.9276 15.6337 52.9276 15.327V13.694C52.9276 13.464 52.9276 13.2723 52.9276 13.119C52.9276 12.9503 52.9352 12.8277 52.9506 12.751C52.9659 12.4443 53.0349 12.1147 53.1576 11.762C53.2956 11.394 53.5716 11.1333 53.9856 10.98C54.0622 10.9493 54.1466 10.9263 54.2386 10.911C54.3306 10.8957 54.4226 10.8727 54.5146 10.842C54.6832 10.8113 54.8672 10.819 55.0666 10.865C55.2812 10.911 55.4729 10.9877 55.6416 11.095C55.8256 11.233 55.9406 11.4017 55.9866 11.601C56.0326 11.7237 56.0709 11.8463 56.1016 11.969C56.1476 12.0763 56.1706 12.1913 56.1706 12.314C56.2012 12.4367 56.2166 12.5593 56.2166 12.682C56.2166 12.8047 56.2166 12.9273 56.2166 13.05V13.809C56.2166 13.993 56.2089 14.1463 56.1936 14.269C56.1936 14.3917 56.1936 14.499 56.1936 14.591V15.81V17.42V19.237V20.985V22.572C56.1936 22.8327 56.1936 23.0703 56.1936 23.285C56.2089 23.4843 56.2166 23.6683 56.2166 23.837C56.2166 23.883 56.2166 23.9367 56.2166 23.998C56.2319 24.044 56.2396 24.0977 56.2396 24.159C56.2702 24.2357 56.3162 24.32 56.3776 24.412C56.5156 24.5193 56.6306 24.573 56.7226 24.573L58.1716 24.642C58.2789 24.6573 58.3709 24.665 58.4476 24.665C58.5396 24.665 58.6239 24.665 58.7006 24.665C59.0226 24.665 59.3522 24.6573 59.6896 24.642C60.0269 24.6267 60.3336 24.6573 60.6096 24.734C60.8856 24.7953 61.1079 24.9333 61.2766 25.148C61.4606 25.3473 61.5526 25.6617 61.5526 26.091V26.321C61.5372 26.551 61.4606 26.7427 61.3226 26.896C61.1999 27.0493 61.0466 27.172 60.8626 27.264C60.6786 27.3407 60.4716 27.3943 60.2416 27.425C60.0269 27.4557 59.8199 27.4787 59.6206 27.494C59.3139 27.5093 59.0149 27.54 58.7236 27.586C58.4476 27.6167 58.1792 27.632 57.9186 27.632H57.2056H56.8146ZM69.5106 26.298C69.5106 26.4973 69.5029 26.712 69.4876 26.942C69.4722 27.1567 69.4492 27.3713 69.4186 27.586C69.3726 28 69.1809 28.345 68.8436 28.621C68.6902 28.6977 68.5446 28.7513 68.4066 28.782C68.2839 28.828 68.1612 28.851 68.0386 28.851C67.7779 28.851 67.5632 28.7513 67.3946 28.552C67.3026 28.4447 67.2259 28.3373 67.1646 28.23C67.1032 28.138 67.0572 28.023 67.0266 27.885C66.9806 27.747 66.9422 27.609 66.9116 27.471C66.8809 27.333 66.8579 27.1797 66.8426 27.011C66.8426 26.8577 66.8349 26.7273 66.8196 26.62C66.8196 26.4973 66.8196 26.3823 66.8196 26.275V20.456H65.0716V26.413C65.1176 26.781 65.1099 27.1567 65.0486 27.54C65.0026 27.8773 64.9029 28.1763 64.7496 28.437C64.5656 28.713 64.2819 28.851 63.8986 28.851C63.8219 28.851 63.7376 28.8357 63.6456 28.805C63.5536 28.7743 63.4616 28.7437 63.3696 28.713C63.2162 28.6363 63.0782 28.5367 62.9556 28.414C62.8329 28.2913 62.7256 28.1533 62.6336 28C62.5416 27.8467 62.4802 27.6627 62.4496 27.448C62.4189 27.2487 62.3959 27.057 62.3806 26.873C62.3806 26.689 62.3806 26.5127 62.3806 26.344V11.854C62.3806 11.394 62.4496 11.003 62.5876 10.681C62.7562 10.3283 63.0936 10.129 63.5996 10.083C63.9982 10.0523 64.2896 10.1443 64.4736 10.359C64.5656 10.4817 64.6499 10.6043 64.7266 10.727C64.8032 10.8343 64.8646 10.9647 64.9106 11.118C65.0026 11.4707 65.0486 11.808 65.0486 12.13C65.0639 12.2987 65.0716 12.452 65.0716 12.59C65.0716 12.728 65.0716 12.8507 65.0716 12.958V17.581H66.8196V12.774V12.015C66.8196 11.7237 66.8426 11.4247 66.8886 11.118C66.9499 10.8727 67.0572 10.6427 67.2106 10.428C67.3792 10.244 67.6399 10.129 67.9926 10.083C68.0692 10.083 68.1459 10.083 68.2226 10.083C68.3146 10.083 68.3989 10.0983 68.4756 10.129C68.6596 10.2057 68.7976 10.2977 68.8896 10.405C68.9816 10.5123 69.0582 10.6197 69.1196 10.727C69.1962 10.8343 69.2499 10.957 69.2806 11.095C69.3572 11.3863 69.4109 11.7083 69.4416 12.061C69.4876 12.4137 69.5106 12.7357 69.5106 13.027V13.924V26.298ZM87.1374 27.08C87.3827 27.0953 87.5974 27.1567 87.7814 27.264C87.9654 27.356 88.0957 27.5247 88.1724 27.77C88.3411 28.3373 88.1417 28.7207 87.5744 28.92C87.3904 28.9967 87.1987 29.0427 86.9994 29.058C86.8154 29.0733 86.6467 29.081 86.4934 29.081H76.2584C75.9517 29.081 75.6297 29.081 75.2924 29.081C74.955 29.081 74.6177 29.0733 74.2804 29.058C73.8664 29.0427 73.575 28.9123 73.4064 28.667C73.253 28.4217 73.161 28.1227 73.1304 27.77L73.0384 26.183C73.0384 26.091 73.0384 25.9837 73.0384 25.861C73.0384 25.723 73.046 25.585 73.0614 25.447C73.0767 25.2937 73.0997 25.1557 73.1304 25.033C73.161 24.895 73.2147 24.7877 73.2914 24.711C73.506 24.4963 73.7514 24.3583 74.0274 24.297C74.3034 24.2357 74.61 24.205 74.9474 24.205H75.6604C75.737 24.205 75.7984 24.2127 75.8444 24.228C75.8904 24.228 75.9364 24.228 75.9824 24.228H85.5504V23.308H75.7524C75.6757 23.308 75.5914 23.308 75.4994 23.308C75.4227 23.2927 75.3384 23.2927 75.2464 23.308H74.6944C74.541 23.308 74.403 23.308 74.2804 23.308C74.1577 23.308 74.035 23.2927 73.9124 23.262C73.7744 23.2313 73.644 23.2007 73.5214 23.17C73.414 23.1393 73.322 23.0627 73.2454 22.94C73.046 22.5873 73 22.2347 73.1074 21.882C73.1534 21.7593 73.2224 21.6673 73.3144 21.606C73.4064 21.5293 73.5137 21.468 73.6364 21.422C73.759 21.376 73.874 21.3453 73.9814 21.33C74.104 21.2993 74.2114 21.2763 74.3034 21.261C74.426 21.2457 74.541 21.238 74.6484 21.238C74.771 21.2227 74.8937 21.215 75.0164 21.215H75.4074C75.484 21.2303 75.553 21.238 75.6144 21.238C75.691 21.238 75.7677 21.238 75.8444 21.238H85.7804C86.5624 21.238 87.1604 21.3607 87.5744 21.606C87.9884 21.836 88.1954 22.2193 88.1954 22.756V24.872C88.1954 25.0867 88.1417 25.286 88.0344 25.47C87.9424 25.6387 87.7737 25.7997 87.5284 25.953C87.3291 26.0757 87.1297 26.1447 86.9304 26.16C86.731 26.16 86.5317 26.16 86.3324 26.16H75.8674V27.08H87.1374ZM77.2704 10.221C78.8344 10.3283 80.0227 10.8267 80.8354 11.716C81.6634 12.6053 82.0237 13.8703 81.9164 15.511C81.8091 16.891 81.3797 17.9567 80.6284 18.708C79.8924 19.4593 78.7884 19.835 77.3164 19.835C77.0404 19.835 76.749 19.835 76.4424 19.835C76.1357 19.835 75.8214 19.8197 75.4994 19.789C75.1927 19.743 74.8707 19.6663 74.5334 19.559C74.196 19.4517 73.851 19.2907 73.4984 19.076C73.161 18.8613 72.8774 18.6007 72.6474 18.294C72.4327 17.9873 72.2564 17.6577 72.1184 17.305C71.9804 16.937 71.8807 16.5613 71.8194 16.178C71.7734 15.7947 71.7504 15.419 71.7504 15.051C71.7504 14.223 71.8884 13.4947 72.1644 12.866C72.4404 12.2373 72.8237 11.716 73.3144 11.302C73.805 10.888 74.3877 10.589 75.0624 10.405C75.737 10.221 76.473 10.1597 77.2704 10.221ZM88.2184 18.8C88.2184 18.8 88.2107 18.8537 88.1954 18.961C88.1801 19.0683 88.1494 19.191 88.1034 19.329C88.0574 19.467 87.9884 19.6127 87.8964 19.766C87.8044 19.904 87.6817 20.019 87.5284 20.111C87.3137 20.2337 87.0991 20.295 86.8844 20.295C86.6237 20.295 86.3707 20.2107 86.1254 20.042C85.9567 19.9193 85.8264 19.7583 85.7344 19.559C85.6117 19.329 85.5274 19.076 85.4814 18.8C85.4507 18.524 85.4277 18.2403 85.4124 17.949C85.4124 17.6577 85.4201 17.374 85.4354 17.098C85.4507 16.8067 85.4584 16.5307 85.4584 16.27C85.4584 15.948 85.4584 15.649 85.4584 15.373C85.4737 15.0817 85.4814 14.8057 85.4814 14.545C85.4814 14.269 85.4814 13.993 85.4814 13.717C85.4814 13.441 85.4814 13.142 85.4814 12.82V12.521C85.466 12.3523 85.4584 12.176 85.4584 11.992C85.4737 11.7927 85.5044 11.6087 85.5504 11.44C85.6117 11.21 85.7497 10.9647 85.9644 10.704C86.0871 10.5507 86.2557 10.4433 86.4704 10.382C86.7004 10.3053 86.9457 10.2823 87.2064 10.313C87.6664 10.3897 87.973 10.589 88.1264 10.911C88.2184 11.1103 88.2567 11.3557 88.2414 11.647C88.2414 11.9383 88.2337 12.1147 88.2184 12.176V18.8ZM79.2714 15.603C79.348 15.051 79.2561 14.5373 78.9954 14.062C78.7501 13.5867 78.3821 13.2647 77.8914 13.096C77.5694 12.9887 77.2167 12.935 76.8334 12.935C76.45 12.935 76.082 13.004 75.7294 13.142C75.392 13.2647 75.093 13.464 74.8324 13.74C74.587 14.0007 74.4337 14.3457 74.3724 14.775C74.3264 15.0663 74.3264 15.3653 74.3724 15.672C74.4184 15.9633 74.518 16.2317 74.6714 16.477C74.84 16.707 75.07 16.9063 75.3614 17.075C75.6527 17.2437 76.0207 17.351 76.4654 17.397C76.7721 17.4277 77.0711 17.4277 77.3624 17.397C77.669 17.3663 77.945 17.2897 78.1904 17.167C78.451 17.0443 78.6734 16.8757 78.8574 16.661C79.0414 16.431 79.1717 16.1397 79.2484 15.787L79.2714 15.603ZM98.2942 13.234C98.2942 13.0807 98.3018 12.866 98.3172 12.59C98.3325 12.314 98.3862 12.038 98.4782 11.762C98.5702 11.486 98.7082 11.2483 98.8922 11.049C99.0915 10.8497 99.3752 10.75 99.7432 10.75C100.065 10.75 100.349 10.8343 100.594 11.003C100.778 11.1257 100.916 11.348 101.008 11.67C101.116 11.9767 101.185 12.3217 101.215 12.705C101.261 13.0883 101.284 13.4717 101.284 13.855C101.284 14.2383 101.277 14.5527 101.261 14.798V23.239C101.261 23.285 101.261 23.4537 101.261 23.745C101.261 24.021 101.246 24.343 101.215 24.711C101.185 25.0637 101.131 25.4317 101.054 25.815C100.993 26.183 100.901 26.482 100.778 26.712C100.732 26.8193 100.656 26.9343 100.548 27.057C100.456 27.1643 100.387 27.241 100.341 27.287C100.219 27.4097 100.081 27.5017 99.9272 27.563C99.7892 27.6243 99.6435 27.678 99.4902 27.724C99.3368 27.7547 99.1988 27.7777 99.0762 27.793C98.9535 27.8083 98.8692 27.816 98.8232 27.816H93.9932C93.6252 27.816 93.2725 27.7853 92.9352 27.724C92.6132 27.6627 92.3142 27.5247 92.0382 27.31C91.8388 27.1567 91.6855 26.965 91.5782 26.735C91.4862 26.4897 91.4172 26.252 91.3712 26.022C91.3405 25.792 91.3252 25.585 91.3252 25.401C91.3252 25.2017 91.3252 25.079 91.3252 25.033V13.004C91.3252 12.7893 91.3482 12.5517 91.3942 12.291C91.4555 12.0303 91.5398 11.7927 91.6472 11.578C91.7698 11.348 91.9232 11.164 92.1072 11.026C92.2912 10.8727 92.5212 10.796 92.7972 10.796C93.5638 10.796 94.0622 11.1257 94.2922 11.785C94.3688 11.9997 94.4148 12.2143 94.4302 12.429C94.4455 12.6437 94.4608 12.8583 94.4762 13.073V13.119C94.4762 13.2263 94.4762 13.4793 94.4762 13.878C94.4762 14.2767 94.4762 14.7137 94.4762 15.189C94.4762 15.649 94.4762 16.1013 94.4762 16.546C94.4915 16.9753 94.4992 17.282 94.4992 17.466C94.5758 17.466 94.7752 17.466 95.0972 17.466C95.4192 17.466 95.7795 17.466 96.1782 17.466C96.5922 17.466 96.9908 17.4583 97.3742 17.443C97.7575 17.4277 98.0488 17.397 98.2482 17.351L98.2942 16.293V13.234ZM104.481 20.571C104.267 20.5403 104.052 20.525 103.837 20.525C103.638 20.5097 103.431 20.4867 103.216 20.456C102.956 20.4407 102.718 20.3793 102.503 20.272C102.289 20.1647 102.112 20.0267 101.974 19.858C101.836 19.6893 101.744 19.4823 101.698 19.237C101.668 18.9917 101.691 18.7233 101.767 18.432C101.798 18.3093 101.859 18.179 101.951 18.041C102.059 17.903 102.158 17.7957 102.25 17.719C102.465 17.5657 102.68 17.466 102.894 17.42C103.14 17.3893 103.393 17.3817 103.653 17.397C103.929 17.4123 104.198 17.4047 104.458 17.374H104.527V17.282C104.527 17.098 104.527 16.9447 104.527 16.822C104.543 16.6993 104.55 16.5843 104.55 16.477C104.55 16.3697 104.543 16.2547 104.527 16.132C104.527 16.0093 104.527 15.8483 104.527 15.649C104.527 15.2503 104.52 14.8593 104.504 14.476C104.504 14.0773 104.512 13.6863 104.527 13.303V12.981C104.527 12.7817 104.527 12.567 104.527 12.337C104.543 12.0917 104.566 11.854 104.596 11.624C104.627 11.3787 104.681 11.1563 104.757 10.957C104.834 10.7423 104.941 10.566 105.079 10.428C105.309 10.2287 105.555 10.129 105.815 10.129H105.861C106.229 10.1443 106.521 10.2593 106.735 10.474C106.965 10.6733 107.134 10.9187 107.241 11.21C107.364 11.5013 107.441 11.808 107.471 12.13C107.502 12.4367 107.517 12.7127 107.517 12.958V26.758C107.517 26.7733 107.517 26.85 107.517 26.988C107.517 27.1107 107.502 27.264 107.471 27.448C107.441 27.632 107.395 27.816 107.333 28C107.272 28.184 107.172 28.3373 107.034 28.46C106.927 28.5673 106.774 28.6517 106.574 28.713C106.375 28.7743 106.191 28.805 106.022 28.805C105.654 28.805 105.363 28.6823 105.148 28.437C104.949 28.2223 104.826 28 104.78 27.77C104.734 27.54 104.696 27.2947 104.665 27.034C104.665 26.988 104.658 26.942 104.642 26.896C104.642 26.85 104.642 26.7963 104.642 26.735C104.612 26.4897 104.596 26.229 104.596 25.953C104.596 25.677 104.589 25.401 104.573 25.125C104.558 24.9563 104.55 24.7953 104.55 24.642C104.55 24.4733 104.55 24.3047 104.55 24.136V23.607C104.55 23.4537 104.55 23.262 104.55 23.032C104.55 22.802 104.543 22.572 104.527 22.342C104.527 22.112 104.527 21.8897 104.527 21.675C104.527 21.445 104.527 21.2457 104.527 21.077C104.527 21.0003 104.527 20.916 104.527 20.824C104.527 20.732 104.512 20.6477 104.481 20.571ZM98.2942 25.01L98.2712 20.249L94.2922 20.272C94.2768 20.594 94.2692 20.9927 94.2692 21.468C94.2845 21.9433 94.2922 22.342 94.2922 22.664C94.2922 22.7867 94.2922 22.9553 94.2922 23.17C94.2922 23.3847 94.2922 23.6147 94.2922 23.86C94.2922 24.1053 94.2922 24.3353 94.2922 24.55C94.2922 24.7647 94.2922 24.9257 94.2922 25.033L98.2942 25.01ZM123.504 20.456C123.427 20.456 123.259 20.4483 122.998 20.433C122.737 20.4177 122.546 20.41 122.423 20.41C122.27 20.41 122.124 20.41 121.986 20.41C121.863 20.3947 121.741 20.3717 121.618 20.341C121.495 20.341 121.373 20.3257 121.25 20.295C121.143 20.2643 121.028 20.226 120.905 20.18C120.706 20.0727 120.545 19.9423 120.422 19.789C120.345 19.6817 120.276 19.582 120.215 19.49C120.169 19.398 120.146 19.2907 120.146 19.168C120.115 18.984 120.123 18.7693 120.169 18.524C120.23 18.2787 120.315 18.0947 120.422 17.972C120.468 17.8953 120.506 17.834 120.537 17.788C120.583 17.742 120.637 17.6883 120.698 17.627C120.79 17.5503 120.89 17.4967 120.997 17.466C121.104 17.42 121.204 17.3817 121.296 17.351C121.465 17.3203 121.618 17.305 121.756 17.305C121.909 17.305 122.055 17.305 122.193 17.305H123.55V15.649C123.55 15.465 123.542 15.2963 123.527 15.143C123.512 14.9897 123.504 14.8287 123.504 14.66C123.504 14.292 123.504 13.9317 123.504 13.579C123.504 13.211 123.519 12.843 123.55 12.475C123.55 12.245 123.565 12.0073 123.596 11.762C123.642 11.5167 123.703 11.2867 123.78 11.072C123.841 10.888 123.949 10.7117 124.102 10.543C124.301 10.359 124.531 10.267 124.792 10.267H124.838C125.16 10.267 125.421 10.3283 125.62 10.451C125.819 10.5583 125.98 10.7117 126.103 10.911C126.241 11.095 126.333 11.3097 126.379 11.555C126.44 11.8003 126.479 12.0457 126.494 12.291C126.54 12.6897 126.563 13.1037 126.563 13.533C126.563 13.9623 126.563 14.384 126.563 14.798V24.895C126.563 25.4163 126.571 25.953 126.586 26.505C126.601 27.0417 126.525 27.5553 126.356 28.046C126.279 28.2453 126.18 28.4063 126.057 28.529C126.011 28.5597 125.942 28.598 125.85 28.644C125.758 28.69 125.666 28.7283 125.574 28.759C125.482 28.7897 125.39 28.8127 125.298 28.828C125.221 28.8433 125.145 28.851 125.068 28.851C124.715 28.851 124.432 28.7437 124.217 28.529C124.018 28.3297 123.864 28.0843 123.757 27.793C123.65 27.4863 123.581 27.172 123.55 26.85C123.519 26.528 123.504 26.2443 123.504 25.999V25.171C123.504 24.895 123.504 24.5883 123.504 24.251C123.504 23.8983 123.504 23.5457 123.504 23.193C123.519 22.825 123.527 22.4723 123.527 22.135C123.527 21.7823 123.519 21.4603 123.504 21.169V20.456ZM115.569 24.757C115.554 24.573 115.546 24.389 115.546 24.205C115.546 24.021 115.546 23.837 115.546 23.653V16.339C115.546 16.0937 115.546 15.8483 115.546 15.603C115.546 15.3577 115.531 15.1047 115.5 14.844C115.485 14.7673 115.462 14.66 115.431 14.522C115.416 14.384 115.37 14.2997 115.293 14.269C115.216 14.223 115.124 14.2077 115.017 14.223C114.925 14.223 114.833 14.2153 114.741 14.2C114.634 14.1847 114.526 14.1847 114.419 14.2C114.327 14.2153 114.227 14.2153 114.12 14.2H113.039C112.778 14.2153 112.518 14.2153 112.257 14.2C111.996 14.1847 111.736 14.1847 111.475 14.2C111.352 14.2153 111.237 14.223 111.13 14.223C111.038 14.2077 110.931 14.2 110.808 14.2C110.639 14.2 110.463 14.1923 110.279 14.177C110.095 14.1617 109.926 14.1003 109.773 13.993C109.558 13.8397 109.413 13.648 109.336 13.418C109.259 13.188 109.221 12.9503 109.221 12.705C109.206 12.4137 109.267 12.1223 109.405 11.831C109.482 11.647 109.581 11.5167 109.704 11.44C109.781 11.3633 109.888 11.302 110.026 11.256C110.179 11.1947 110.31 11.1487 110.417 11.118C110.739 11.0413 111.076 11.003 111.429 11.003C111.782 10.9877 112.127 10.98 112.464 10.98H116.466C116.665 11.0107 116.872 11.0413 117.087 11.072C117.317 11.0873 117.524 11.1333 117.708 11.21C117.831 11.256 117.946 11.3173 118.053 11.394C118.176 11.4707 118.275 11.5627 118.352 11.67C118.49 11.8847 118.567 12.0993 118.582 12.314C118.613 12.5287 118.643 12.7663 118.674 13.027C118.705 13.4563 118.72 13.8857 118.72 14.315C118.72 14.729 118.72 15.1507 118.72 15.58V23.124C118.72 23.1393 118.72 23.262 118.72 23.492C118.735 23.7067 118.743 23.9673 118.743 24.274C118.743 24.5653 118.743 24.8797 118.743 25.217C118.743 25.539 118.735 25.8227 118.72 26.068C118.705 26.2213 118.682 26.3823 118.651 26.551C118.62 26.7197 118.567 26.8807 118.49 27.034C118.429 27.1873 118.337 27.3253 118.214 27.448C118.091 27.5707 117.93 27.6703 117.731 27.747C117.47 27.8543 117.21 27.908 116.949 27.908C116.75 27.908 116.55 27.8697 116.351 27.793C116.152 27.701 116.014 27.5707 115.937 27.402C115.692 26.9113 115.569 26.367 115.569 25.769V24.757ZM129.923 28.414C129.907 28.414 129.884 28.3987 129.854 28.368C129.7 28.2453 129.593 28.069 129.532 27.839C129.486 27.5937 129.463 27.3867 129.463 27.218C129.447 26.942 129.424 26.666 129.394 26.39C129.378 26.114 129.371 25.8457 129.371 25.585C129.371 25.1863 129.371 24.7953 129.371 24.412C129.371 24.0287 129.409 23.6453 129.486 23.262C129.532 23.0167 129.608 22.825 129.716 22.687C129.823 22.5337 129.992 22.411 130.222 22.319C130.651 22.1503 131.08 22.066 131.51 22.066H142.343C142.634 22.0813 142.933 22.1043 143.24 22.135C143.546 22.1657 143.838 22.2423 144.114 22.365C144.42 22.4877 144.62 22.6947 144.712 22.986C144.819 23.262 144.888 23.5533 144.919 23.86C144.934 24.1207 144.942 24.4273 144.942 24.78C144.957 25.1173 144.957 25.4623 144.942 25.815C144.926 26.1677 144.903 26.5203 144.873 26.873C144.842 27.2103 144.788 27.517 144.712 27.793C144.666 27.9617 144.612 28.1073 144.551 28.23C144.489 28.368 144.367 28.4677 144.183 28.529C144.014 28.5903 143.838 28.6287 143.654 28.644C143.485 28.6593 143.316 28.667 143.148 28.667L131.165 28.621C130.965 28.6057 130.751 28.598 130.521 28.598C130.291 28.598 130.091 28.5367 129.923 28.414ZM141.285 19.421C141.269 19.5897 141.246 19.766 141.216 19.95C141.185 20.1187 141.124 20.2873 141.032 20.456C140.924 20.6553 140.794 20.801 140.641 20.893C140.533 20.9697 140.441 21.031 140.365 21.077C140.288 21.123 140.181 21.146 140.043 21.146C139.828 21.146 139.613 21.0847 139.399 20.962C139.245 20.87 139.123 20.755 139.031 20.617C138.939 20.479 138.87 20.3487 138.824 20.226C138.778 20.088 138.747 19.973 138.732 19.881C138.716 19.789 138.709 19.7353 138.709 19.72V12.153C138.693 12.0763 138.693 11.9077 138.709 11.647C138.739 11.371 138.801 11.141 138.893 10.957C139.046 10.635 139.36 10.451 139.836 10.405C140.096 10.3743 140.311 10.3897 140.48 10.451C140.648 10.5123 140.794 10.612 140.917 10.75C141.024 10.8727 141.093 10.9953 141.124 11.118C141.154 11.2253 141.185 11.3403 141.216 11.463C141.262 11.6163 141.285 11.7773 141.285 11.946C141.3 12.1147 141.308 12.2833 141.308 12.452C141.308 12.452 141.3 12.5287 141.285 12.682C141.285 12.8353 141.285 13.0193 141.285 13.234C141.285 13.4333 141.285 13.6327 141.285 13.832C141.285 14.0313 141.285 14.1847 141.285 14.292C141.361 14.3073 141.499 14.3227 141.699 14.338C141.898 14.338 142.105 14.3457 142.32 14.361L142.343 12.383C142.327 12.2143 142.32 12.0533 142.32 11.9C142.335 11.7313 142.366 11.5627 142.412 11.394C142.473 11.164 142.611 10.934 142.826 10.704C143.071 10.3973 143.431 10.2747 143.907 10.336C144.305 10.3973 144.581 10.5967 144.735 10.934C144.827 11.118 144.88 11.3403 144.896 11.601C144.926 11.8617 144.934 12.0227 144.919 12.084V19.789C144.919 19.8043 144.911 19.858 144.896 19.95C144.896 20.042 144.873 20.157 144.827 20.295C144.781 20.4177 144.712 20.548 144.62 20.686C144.543 20.824 144.428 20.939 144.275 21.031C144.106 21.1383 143.93 21.192 143.746 21.192C143.439 21.192 143.186 21.1153 142.987 20.962C142.818 20.8393 142.688 20.686 142.596 20.502C142.519 20.364 142.458 20.203 142.412 20.019C142.381 19.8197 142.358 19.6203 142.343 19.421C142.327 19.2063 142.32 18.9993 142.32 18.8C142.32 18.6007 142.32 18.432 142.32 18.294V16.868H141.285V19.421ZM131.763 13.487C131.364 13.487 130.942 13.5023 130.498 13.533C130.068 13.5637 129.631 13.5483 129.187 13.487C128.972 13.4563 128.811 13.2953 128.704 13.004C128.612 12.7127 128.566 12.3907 128.566 12.038C128.581 11.7313 128.681 11.509 128.865 11.371C129.064 11.2177 129.271 11.1027 129.486 11.026C129.746 10.934 129.961 10.888 130.13 10.888C130.314 10.8727 130.536 10.8573 130.797 10.842C130.965 10.842 131.157 10.8497 131.372 10.865C131.602 10.865 131.801 10.865 131.97 10.865H133.442C133.518 10.865 133.587 10.865 133.649 10.865C133.725 10.8497 133.802 10.8497 133.879 10.865H134.385C134.492 10.865 134.599 10.8727 134.707 10.888C134.814 10.888 134.921 10.888 135.029 10.888C135.136 10.888 135.243 10.888 135.351 10.888C135.458 10.888 135.565 10.8957 135.673 10.911C135.826 10.911 135.933 10.9263 135.995 10.957C136.025 10.9723 136.056 10.9877 136.087 11.003C136.117 11.003 136.156 11.0107 136.202 11.026C136.309 11.1027 136.409 11.187 136.501 11.279C136.593 11.3557 136.669 11.4553 136.731 11.578C136.853 11.7927 136.922 12.015 136.938 12.245C136.968 12.475 136.984 12.705 136.984 12.935C136.984 13.257 136.984 13.625 136.984 14.039C136.999 14.4377 137.007 14.8517 137.007 15.281C137.022 15.695 137.03 16.109 137.03 16.523C137.03 16.9217 137.022 17.282 137.007 17.604C136.991 17.9873 136.984 18.3477 136.984 18.685C136.999 19.007 136.922 19.3367 136.754 19.674C136.662 19.8733 136.516 20.0343 136.317 20.157C136.117 20.2797 135.903 20.3563 135.673 20.387C135.458 20.4023 135.251 20.3793 135.052 20.318C134.852 20.2413 134.699 20.1033 134.592 19.904C134.362 19.49 134.239 19.099 134.224 18.731C134.224 18.3477 134.231 17.9183 134.247 17.443H129.877C129.861 17.443 129.769 17.4353 129.601 17.42C129.447 17.3893 129.317 17.282 129.21 17.098C129.133 16.914 129.095 16.6993 129.095 16.454C129.095 16.2087 129.141 16.0017 129.233 15.833C129.309 15.6797 129.394 15.5953 129.486 15.58C129.578 15.5493 129.677 15.5187 129.785 15.488C129.877 15.4727 129.961 15.4573 130.038 15.442C130.114 15.4113 130.214 15.3883 130.337 15.373C130.674 15.3577 131.08 15.35 131.556 15.35C132.031 15.3347 132.453 15.327 132.821 15.327C133.066 15.327 133.296 15.327 133.511 15.327C133.741 15.327 133.986 15.3347 134.247 15.35C134.247 15.074 134.239 14.7827 134.224 14.476C134.224 14.154 134.216 13.8627 134.201 13.602C133.802 13.5867 133.396 13.5713 132.982 13.556C132.568 13.5407 132.161 13.5177 131.763 13.487ZM132.108 25.723C132.108 25.7997 132.108 25.8763 132.108 25.953C132.123 26.0143 132.154 26.0603 132.2 26.091C132.23 26.1217 132.276 26.1447 132.338 26.16C132.414 26.16 132.491 26.16 132.568 26.16C132.644 26.16 132.736 26.1523 132.844 26.137H140.043C140.257 26.1523 140.464 26.1677 140.664 26.183C140.832 26.1983 141.009 26.206 141.193 26.206C141.377 26.206 141.545 26.1907 141.699 26.16C141.852 26.1447 141.944 26.1063 141.975 26.045C142.005 25.9683 142.028 25.861 142.044 25.723C142.059 25.6003 142.067 25.4623 142.067 25.309C142.067 25.1403 142.021 24.9947 141.929 24.872C141.821 24.7493 141.668 24.688 141.469 24.688C141.285 24.6727 141.116 24.6727 140.963 24.688H134.569C134.231 24.6573 133.902 24.6497 133.58 24.665C133.258 24.665 132.928 24.6727 132.591 24.688C132.468 24.688 132.368 24.6957 132.292 24.711C132.23 24.711 132.184 24.78 132.154 24.918C132.123 25.0253 132.108 25.1327 132.108 25.24C132.108 25.332 132.108 25.424 132.108 25.516C132.123 25.5467 132.123 25.5773 132.108 25.608C132.108 25.6387 132.108 25.677 132.108 25.723ZM162.353 13.579C162.291 13.6403 162.199 13.694 162.077 13.74C161.785 13.8627 161.463 13.9087 161.111 13.878C160.773 13.8473 160.451 13.8627 160.145 13.924C160.175 14.1387 160.191 14.338 160.191 14.522C160.206 14.706 160.214 14.8593 160.214 14.982V19.03C160.214 19.0147 160.283 19.0147 160.421 19.03C160.574 19.0453 160.735 19.0683 160.904 19.099C161.088 19.1143 161.256 19.1373 161.41 19.168C161.563 19.1987 161.655 19.214 161.686 19.214C162.069 19.2753 162.353 19.375 162.537 19.513C162.736 19.6357 162.813 19.927 162.767 20.387C162.736 20.7703 162.652 21.054 162.514 21.238C162.391 21.4067 162.23 21.5293 162.031 21.606C161.831 21.6673 161.594 21.698 161.318 21.698C161.057 21.6827 160.773 21.675 160.467 21.675C160.068 21.6903 159.669 21.698 159.271 21.698C158.887 21.6827 158.496 21.675 158.098 21.675C157.791 21.675 157.354 21.675 156.787 21.675C156.235 21.675 155.652 21.675 155.039 21.675C154.425 21.675 153.835 21.6827 153.268 21.698C152.7 21.698 152.271 21.698 151.98 21.698C151.566 21.698 151.152 21.698 150.738 21.698C150.339 21.698 149.933 21.6903 149.519 21.675C149.319 21.675 149.089 21.6597 148.829 21.629C148.568 21.5983 148.315 21.537 148.07 21.445C147.824 21.353 147.61 21.2303 147.426 21.077C147.257 20.9083 147.157 20.6937 147.127 20.433C147.081 20.0803 147.15 19.8197 147.334 19.651C147.533 19.467 147.771 19.3367 148.047 19.26C148.338 19.1833 148.645 19.145 148.967 19.145C149.289 19.1297 149.565 19.1067 149.795 19.076C149.779 18.7847 149.772 18.4627 149.772 18.11C149.787 17.7573 149.795 17.443 149.795 17.167V15.304C149.795 15.258 149.779 15.1047 149.749 14.844C149.733 14.5833 149.733 14.2767 149.749 13.924C149.519 13.9087 149.281 13.901 149.036 13.901C148.79 13.901 148.553 13.878 148.323 13.832C148.108 13.786 147.901 13.7093 147.702 13.602C147.518 13.4793 147.364 13.2953 147.242 13.05C147.058 12.6973 147.05 12.36 147.219 12.038C147.403 11.716 147.671 11.4937 148.024 11.371C148.376 11.2483 148.767 11.1717 149.197 11.141C149.626 11.1103 150.032 11.095 150.416 11.095C151.044 11.095 151.803 11.095 152.693 11.095C153.597 11.095 154.517 11.1027 155.453 11.118C156.403 11.118 157.323 11.118 158.213 11.118C159.117 11.118 159.884 11.118 160.513 11.118C160.819 11.118 161.157 11.1563 161.525 11.233C161.908 11.2943 162.215 11.4477 162.445 11.693C162.552 11.8157 162.629 11.9613 162.675 12.13C162.736 12.2987 162.767 12.475 162.767 12.659C162.767 12.843 162.728 13.0193 162.652 13.188C162.59 13.3413 162.491 13.4717 162.353 13.579ZM148.622 27.241C148.376 27.2257 148.131 27.195 147.886 27.149C147.656 27.0877 147.449 27.011 147.265 26.919C147.081 26.8117 146.927 26.666 146.805 26.482C146.697 26.298 146.644 26.0527 146.644 25.746C146.644 25.4393 146.743 25.171 146.943 24.941C147.065 24.8183 147.219 24.7263 147.403 24.665C147.587 24.6037 147.763 24.5577 147.932 24.527C148.1 24.4963 148.246 24.481 148.369 24.481C148.507 24.481 148.583 24.481 148.599 24.481L161.18 24.504C161.578 24.504 161.939 24.5117 162.261 24.527C162.598 24.527 162.897 24.6343 163.158 24.849C163.48 25.1403 163.641 25.47 163.641 25.838C163.641 26.068 163.572 26.2827 163.434 26.482C163.296 26.666 163.112 26.7963 162.882 26.873C162.575 26.9957 162.253 27.08 161.916 27.126C161.594 27.172 161.272 27.2027 160.95 27.218C159.83 27.264 158.726 27.2793 157.638 27.264C156.549 27.2487 155.491 27.241 154.464 27.241C153.36 27.241 152.279 27.2487 151.221 27.264C150.178 27.2793 149.312 27.2717 148.622 27.241ZM152.739 15.534C152.754 15.6567 152.762 15.7563 152.762 15.833C152.762 15.9097 152.762 15.9863 152.762 16.063V18.363C152.762 18.409 152.769 18.501 152.785 18.639C152.815 18.777 152.861 18.9073 152.923 19.03H157.201V15.994C157.201 15.994 157.201 15.9173 157.201 15.764C157.201 15.6107 157.193 15.4343 157.178 15.235C157.178 15.0357 157.17 14.8363 157.155 14.637C157.155 14.4377 157.147 14.2843 157.132 14.177C157.132 14.085 157.109 14.0007 157.063 13.924H152.877C152.815 13.9853 152.777 14.0697 152.762 14.177C152.731 14.2997 152.716 14.5067 152.716 14.798C152.716 15.074 152.723 15.3193 152.739 15.534Z" fill="#F5EBDD"/>
<path d="M33.5508 8.683C33.0996 8.76093 27.7019 9.79453 27.1646 9.90527C26.09 10.1309 23.4158 10.6518 16.0371 12.0791C9.42127 13.3588 9.7699 13.2932 8.7158 13.49C6.67732 13.8674 5.35252 14.1545 5.09822 14.2734C4.60603 14.499 4.2738 14.9256 4.14255 15.5039C4.11384 15.6269 3.91697 16.3652 3.70369 17.1445C3.49451 17.9238 3.15408 19.2199 2.9531 20.0238C2.75213 20.8318 2.49783 21.8162 2.39529 22.2182C2.1738 23.0631 2.1656 23.3215 2.34607 23.7111C2.44451 23.9244 3.2115 24.9006 5.41404 27.6035C5.93904 28.2475 6.72654 29.2154 7.16131 29.7568C8.93318 31.9471 8.90037 31.9102 9.15056 32.0742C9.48279 32.2875 9.83963 32.3777 10.2416 32.349C10.4179 32.3367 11.4556 32.1521 12.5508 31.9348C13.6459 31.7215 14.9379 31.4672 15.4219 31.3769C15.9058 31.2826 16.7179 31.1268 17.2265 31.0283C20.1633 30.4541 21.0492 30.29 22.4765 30.0398C24.6217 29.6707 24.6873 29.6789 24.9785 30.2531C25.0564 30.409 25.1754 30.6961 25.241 30.8848C25.6717 32.1521 26.1023 33.3416 26.172 33.4523C26.4551 33.9158 26.9678 34.043 27.4435 33.7682C27.6363 33.6533 28.0875 33.1898 28.8094 32.3613C29.0144 32.1234 29.7527 31.2949 30.4541 30.5197C32.0332 28.7602 32.349 28.4115 32.7181 27.9685C33.1119 27.501 33.2554 27.4271 34.0963 27.2508C36.4013 26.7709 36.5039 26.7463 36.709 26.6355C36.9756 26.4879 37.1806 26.2623 37.3283 25.9424C37.4062 25.7783 37.6933 24.7119 38.1445 22.9031C38.5301 21.3732 38.9443 19.7285 39.0633 19.2568C39.1863 18.7811 39.4529 17.7064 39.6621 16.8656C40.2199 14.6057 40.2445 14.7164 38.8869 13.2316C38.5957 12.9158 38.0379 12.3006 37.6482 11.8658C35.7164 9.73711 35.056 9.06855 34.6951 8.88808C34.2931 8.68711 33.9158 8.62148 33.5508 8.683ZM22.5791 13.8018C24.9293 14.1135 26.8078 15.0937 27.9521 16.6154C28.309 17.0871 28.6658 17.7885 28.8176 18.3135C28.9324 18.7031 28.9939 19.384 28.9406 19.667C28.8996 19.8844 28.633 20.1592 28.3582 20.2617C28.1367 20.3437 28.0752 20.3437 20.9426 20.3437C13.0635 20.3437 13.5433 20.3602 13.2726 20.1059C13.0717 19.9172 13.0019 19.7121 13.0019 19.2937C13.0019 18.8426 13.1209 18.3791 13.3916 17.8131C14.1627 16.1766 15.709 14.9174 17.7679 14.2406C18.6375 13.9535 19.1953 13.8469 20.4053 13.7238C20.7416 13.691 22.1033 13.7361 22.5791 13.8018ZM28.4033 21.9146C28.5879 22.0172 28.7519 22.292 28.7519 22.493C28.7519 22.7021 28.5961 22.9605 28.4074 23.0713L28.231 23.1738H25.5076C22.497 23.1738 22.5668 23.1697 22.0336 23.4363C21.8777 23.5143 21.5127 23.7398 21.2215 23.9367C20.9303 24.1336 20.5365 24.3674 20.3437 24.4617C20.0279 24.6135 19.9623 24.6299 19.6875 24.6299C19.4127 24.6299 19.3429 24.6135 19.0722 24.4781C18.9041 24.392 18.5349 24.1623 18.256 23.9572C17.9771 23.7562 17.6121 23.5266 17.448 23.4445C16.9312 23.1902 16.8082 23.1738 15.1142 23.1738C13.7238 23.1738 13.5844 23.1656 13.4285 23.0959C13.2562 23.018 13.1168 22.8375 13.0676 22.6283C13.006 22.3658 13.2029 22.0008 13.4736 21.8777C13.5761 21.8326 14.8928 21.8244 20.9179 21.8244L28.2392 21.8203L28.4033 21.9146ZM28.6945 25.8439C28.9488 25.967 29.0513 26.1516 29.0513 26.492C29.0513 27.3861 28.3992 28.2598 27.4804 28.592L27.2138 28.6904H21.0615C15.9469 28.6904 14.8722 28.6822 14.6836 28.633C13.8674 28.4279 13.1168 27.6814 12.9609 26.9185C12.8543 26.4059 12.9896 26.0162 13.3383 25.8439L13.5146 25.7578H21.0164H28.5222L28.6945 25.8439Z" fill="#F5EBDD"/>
<path d="M22.538 15.631C22.3207 15.75 22.3002 15.951 22.4601 16.275C22.7185 16.7959 23.3091 16.8533 23.3091 16.3529C23.3091 15.9222 22.8293 15.4711 22.538 15.631Z" fill="#F5EBDD"/>
<path d="M18.9492 15.7172C18.7359 15.8648 18.6498 16.0084 18.6293 16.2586C18.6129 16.4555 18.6252 16.4924 18.7154 16.5867C18.8959 16.7672 19.1748 16.7016 19.3758 16.435C19.5644 16.1889 19.5849 15.8033 19.4127 15.6803C19.306 15.5982 19.0969 15.6188 18.9492 15.7172Z" fill="#F5EBDD"/>
<path d="M17.2225 17.526C16.9805 17.69 16.8164 18.01 16.8164 18.3258C16.8164 18.4898 16.9723 18.6621 17.1158 18.6621C17.5301 18.6621 17.9033 17.8172 17.6162 17.5342C17.4932 17.407 17.3988 17.407 17.2225 17.526Z" fill="#F5EBDD"/>
<path d="M20.7539 17.5465C20.6432 17.6613 20.6309 17.6941 20.6309 17.9443C20.6309 18.2602 20.7006 18.4488 20.8564 18.5719C21.2543 18.8836 21.6234 18.3217 21.3732 17.7803C21.2789 17.5752 21.1764 17.4809 21.0082 17.448C20.9016 17.4275 20.8605 17.4439 20.7539 17.5465Z" fill="#F5EBDD"/>
</svg>
